#!OML:ASF E:\Style4\Style4.ASF
:FULLY-SPECIFIED
:DEGREES
2956
root 0.466077 16.4204 -0.0565799 3.96465 5.68164 5.49953
lowerback 13.295 2.63173 -2.90466
upperback 6.72322 3.13627 -0.841748
thorax -0.484532 1.52324 0.334413
lowerneck 7.68063 -7.01111 -6.7386
upperneck 0.209098 -9.77547 6.34257
head -0.573629 -4.98838 3.44975
rclavicle 2.60408e-014 -1.55052e-014
rhumerus -28.4752 17.3067 -57.5073
rradius 136.572
rwrist -73.3871
rhand 54.5667 -3.02567
rfingers 7.12502
rthumb 72.6092 12.0958
lclavicle 2.60408e-014 -1.55052e-014
lhumerus -13.4573 -11.2342 52.0303
lradius 140.245
lwrist 74.706
lhand 36.5657 49.1508
lfingers 7.12502
lthumb 59.4926 63.453
rfemur -29.7057 -9.3274 11.7228
rtibia 62.6446
rfoot -30.7551 -21.1888
rtoes -15.5386
lfemur -29.2506 -1.23732 -26.8867
ltibia 57.7366
lfoot -30.5347 11.0343
ltoes -17.9674
2957
root 0.46844 16.4263 -0.0526111 3.93971 5.6735 5.47439
lowerback 12.9779 2.66235 -2.95009
upperback 6.95948 3.19276 -0.744097
thorax -0.0760456 1.54341 0.47442
lowerneck 7.68344 -7.02807 -6.81374
upperneck -0.0244768 -9.79857 6.36381
head -0.643265 -4.99971 3.47865
rclavicle 4.17448e-015 5.1684e-015
rhumerus -28.3563 17.2629 -57.2771
rradius 136.605
rwrist -73.4102
rhand 54.2634 -3.48374
rfingers 7.12502
rthumb 72.4562 10.8054
lclavicle 4.17448e-015 5.1684e-015
lhumerus -13.3233 -11.0856 52.0698
lradius 140.115
lwrist 74.5617
lhand 36.9208 48.9463
lfingers 7.12502
lthumb 59.7973 62.9376
rfemur -29.5889 -9.30813 11.7348
rtibia 62.5086
rfoot -30.7205 -21.1944
rtoes -15.645
lfemur -29.1614 -1.24077 -26.8683
ltibia 57.6381
lfoot -30.5486 11.1297
ltoes -18.121
2958
root 0.471618 16.4319 -0.0515487 3.92949 5.65552 5.39709
lowerback 12.852 2.68012 -2.87171
upperback 7.08974 3.23401 -0.688866
thorax 0.127617 1.56227 0.491991
lowerneck 7.55905 -7.03992 -6.86811
upperneck -0.0566736 -9.81123 6.41061
head -0.625839 -5.00533 3.49869
rclavicle 8.74653e-015 2.38542e-015
rhumerus -28.0238 17.247 -56.9721
rradius 136.377
rwrist -73.643
rhand 54.2234 -4.12719
rfingers 7.12502
rthumb 72.4357 10.0531
lclavicle 8.74653e-015 2.38542e-015
lhumerus -13.193 -10.9916 51.9912
lradius 139.945
lwrist 74.4431
lhand 37.2 48.7263
lfingers 7.12502
lthumb 60.0364 62.4684
rfemur -29.5121 -9.26692 11.815
rtibia 62.3663
rfoot -30.6901 -21.2234
rtoes -15.7962
lfemur -29.1225 -1.22655 -26.7902
ltibia 57.5607
lfoot -30.44 11.1432
ltoes -18.1542
2959
root 0.47494 16.439 -0.0477882 3.9324 5.62264 5.28846
lowerback 12.8556 2.68519 -2.74335
upperback 7.12569 3.25532 -0.671587
thorax 0.168172 1.57543 0.436407
lowerneck 7.42615 -7.06217 -6.80963
upperneck -0.04147 -9.82955 6.40368
head -0.59944 -5.01287 3.47806
rclavicle -4.35338e-014 3.18055e-015
rhumerus -27.705 17.2939 -56.6896
rradius 136.005
rwrist -73.9137
rhand 54.4493 -4.27712
rfingers 7.12502
rthumb 72.5504 10.5202
lclavicle -4.35338e-014 3.18055e-015
lhumerus -13.1996 -11.1442 51.8221
lradius 139.933
lwrist 74.5062
lhand 36.788 48.8298
lfingers 7.12502
lthumb 59.6835 62.9381
rfemur -29.4394 -9.19837 11.928
rtibia 62.2284
rfoot -30.6293 -21.2714
rtoes -15.6728
lfemur -29.0855 -1.17064 -26.6727
ltibia 57.4953
lfoot -30.4469 11.0831
ltoes -18.1776
2960
root 0.478092 16.4435 -0.0429828 3.92441 5.61393 5.25898
lowerback 12.8646 2.67201 -2.73035
upperback 7.16008 3.23998 -0.658056
thorax 0.199849 1.56737 0.445704
lowerneck 7.32262 -7.07982 -6.68193
upperneck -0.0739419 -9.83779 6.2963
head -0.602967 -5.01376 3.4142
rclavicle 1.70955e-014 -2.54444e-014
rhumerus -27.5794 17.5111 -56.4155
rradius 135.739
rwrist -74.0842
rhand 54.4408 -4.20289
rfingers 7.12502
rthumb 72.5461 10.5712
lclavicle 1.70955e-014 -2.54444e-014
lhumerus -13.3195 -11.4148 51.5716
lradius 139.884
lwrist 74.5357
lhand 36.4617 48.7719
lfingers 7.12502
lthumb 59.403 63.164
rfemur -29.3465 -9.18608 11.9415
rtibia 62.1168
rfoot -30.6424 -21.2021
rtoes -15.3514
lfemur -29.0214 -1.10497 -26.6457
ltibia 57.4415
lfoot -30.5355 11.0844
ltoes -18.5478
2961
root 0.479788 16.4468 -0.0400401 3.89665 5.57997 5.23358
lowerback 12.9388 2.65426 -2.77421
upperback 7.18038 3.20958 -0.630943
thorax 0.178714 1.55046 0.499342
lowerneck 7.22334 -7.06958 -6.58118
upperneck -0.122557 -9.81122 6.20007
head -0.613077 -4.99755 3.35978
rclavicle -1.33186e-014 4.77083e-015
rhumerus -27.5131 17.8585 -56.0894
rradius 135.523
rwrist -74.2376
rhand 54.2294 -4.11815
rfingers 7.12502
rthumb 72.4388 10.0784
lclavicle -1.33186e-014 4.77083e-015
lhumerus -13.5085 -11.6772 51.2401
lradius 139.791
lwrist 74.4474
lhand 36.3357 48.7459
lfingers 7.12502
lthumb 59.2946 63.246
rfemur -29.2679 -9.15161 11.96
rtibia 62.0234
rfoot -30.6486 -21.141
rtoes -15.2449
lfemur -28.9581 -0.998046 -26.617
ltibia 57.3947
lfoot -30.5801 11.0032
ltoes -18.5613
2962
root 0.482054 16.4517 -0.0367988 3.8804 5.53518 5.18303
lowerback 12.9937 2.63658 -2.77745
upperback 7.19253 3.184 -0.619208
thorax 0.16205 1.53735 0.514467
lowerneck 7.24243 -7.05891 -6.46283
upperneck -0.283047 -9.78536 6.13934
head -0.678987 -4.98359 3.32445
rclavicle -9.93923e-016 2.3059e-014
rhumerus -27.4084 18.2331 -55.7186
rradius 135.342
rwrist -74.3544
rhand 54.0684 -4.33499
rfingers 7.12502
rthumb 72.3558 9.42684
lclavicle -9.93923e-016 2.3059e-014
lhumerus -13.716 -11.9222 50.7846
lradius 139.81
lwrist 74.4551
lhand 35.965 49.1867
lfingers 7.12502
lthumb 58.9747 64.0002
rfemur -29.207 -9.09932 12.012
rtibia 61.9398
rfoot -30.6571 -21.1483
rtoes -15.2208
lfemur -28.9101 -0.950267 -26.5703
ltibia 57.3473
lfoot -30.5437 10.9381
ltoes -18.3624
2963
root 0.483967 16.4564 -0.0344137 3.89556 5.48872 5.13073
lowerback 13.1679 2.60332 -2.74603
upperback 7.08191 3.13339 -0.648741
thorax -0.0427792 1.51587 0.462057
lowerneck 7.41887 -7.04898 -6.32842
upperneck -0.45389 -9.76564 6.11294
head -0.774426 -4.97522 3.30685
rclavicle 1.35174e-014 -2.26615e-014
rhumerus -27.4697 18.8133 -55.4348
rradius 135.272
rwrist -74.2535
rhand 53.3098 -4.72983
rfingers 7.12502
rthumb 71.9511 7.03884
lclavicle 1.35174e-014 -2.26615e-014
lhumerus -13.9259 -12.2214 50.0749
lradius 139.86
lwrist 74.3696
lhand 35.7548 49.2081
lfingers 7.12502
lthumb 58.7928 64.1962
rfemur -29.2006 -9.02786 12.0703
rtibia 61.8738
rfoot -30.6085 -21.2305
rtoes -15.4989
lfemur -28.8906 -0.922985 -26.5165
ltibia 57.3045
lfoot -30.5074 10.6883
ltoes -17.3769
2964
root 0.485467 16.46 -0.0325867 3.94245 5.44978 5.1567
lowerback 13.6438 2.53874 -2.75069
upperback 6.74966 3.01851 -0.767492
thorax -0.636613 1.46737 0.327257
lowerneck 7.57295 -7.00071 -6.10177
upperneck -0.356957 -9.69296 6.00879
head -0.791239 -4.93925 3.2359
rclavicle -3.16068e-014 1.43125e-014
rhumerus -27.7866 19.6202 -55.2917
rradius 135.259
rwrist -73.9979
rhand 52.5764 -4.739
rfingers 7.12502
rthumb 71.5393 5.18943
lclavicle -3.16068e-014 1.43125e-014
lhumerus -14.2897 -12.76 49.09
lradius 139.874
lwrist 74.1656
lhand 35.9166 48.7142
lfingers 7.12502
lthumb 58.9328 63.5681
rfemur -29.2401 -8.99309 12.0428
rtibia 61.8341
rfoot -30.4925 -21.3051
rtoes -15.6936
lfemur -28.9152 -0.881862 -26.5517
ltibia 57.2663
lfoot -30.4759 10.6497
ltoes -17.1782
